<svg xmlns="http://www.w3.org/2000/svg" fill="none" viewBox="0 0 96 96" id="Dbt--Streamline-Svg-Logos" height="96" width="96">
  <desc>
    Dbt Streamline Icon: https://streamlinehq.com
  </desc>
  <path fill="#262a38" d="M62.4555 35.605v24.4977h-4.9647v-2.4985c-0.5192 0.8761 -1.2652 1.59 -2.1739 2.0442 -0.9734 0.4867 -2.0767 0.7463 -3.1796 0.7463 -1.3629 0.0325 -2.7258 -0.3569 -3.8614 -1.1357 -1.1679 -0.7787 -2.0766 -1.8494 -2.6608 -3.1149 -0.6488 -1.4601 -0.9733 -3.0176 -0.941 -4.6075 -0.0323 -1.5899 0.2922 -3.1474 0.941 -4.575 0.5842 -1.2331 1.4929 -2.3038 2.6285 -3.0501 1.1679 -0.7463 2.5308 -1.1032 3.8937 -1.0708 1.0706 0 2.1412 0.2272 3.0823 0.7139 0.9087 0.4542 1.6548 1.1356 2.1739 1.9793v-8.2741l5.062 -1.6548Zm-5.9703 19.6631c0.6487 -0.8437 1.0056 -2.0767 1.0056 -3.6666 0 -1.5899 -0.3242 -2.7905 -1.0056 -3.6341 -0.6815 -0.8436 -1.7525 -1.3303 -2.8554 -1.2979 -1.1033 -0.0649 -2.1739 0.4218 -2.8881 1.2655 -0.681 0.8436 -1.0383 2.0442 -1.0383 3.6016 0 1.5899 0.3573 2.8229 1.0383 3.699 0.6815 0.8761 1.7848 1.3628 2.8881 1.3304 1.2329 0 2.2062 -0.4543 2.8554 -1.2979Zm23.7191 -11.389c1.1679 0.7462 2.0766 1.817 2.6281 3.05 0.6487 1.4277 0.9733 2.9851 0.941 4.5751 0.0323 1.5899 -0.2923 3.1798 -0.941 4.6075 -0.5842 1.2654 -1.4925 2.3362 -2.6608 3.1149 -1.1356 0.7463 -2.4985 1.1357 -3.861 1.1032 -1.1033 0.0325 -2.2067 -0.2271 -3.18 -0.7463 -0.9083 -0.4542 -1.6548 -1.1681 -2.1416 -2.0441v2.5308h-4.9966V37.2598l5.0293 -1.6548v9.9937c0.4864 -0.876 1.2329 -1.5899 2.1412 -2.0441 0.9737 -0.5192 2.0444 -0.7787 3.1477 -0.7463 1.3625 -0.0324 2.7254 0.3569 3.8937 1.0708Zm-2.4662 11.3565c0.6814 -0.8761 1.006 -2.1091 1.006 -3.7314 0 -1.5575 -0.3246 -2.7581 -1.006 -3.6017 -0.6815 -0.8436 -1.6225 -1.2654 -2.8554 -1.2654 -1.1029 -0.0649 -2.1739 0.4218 -2.8877 1.2979 -0.6814 0.876 -1.006 2.0766 -1.006 3.6341 0 1.5899 0.3246 2.8229 1.006 3.6665 0.6815 0.8761 1.7521 1.3628 2.8877 1.2979 1.1033 0.0649 2.1739 -0.4218 2.8554 -1.2979Zm12.979 -8.2416v6.5543c0 0.941 0.2596 1.6224 0.7141 2.0442 0.5192 0.4543 1.2003 0.6814 1.9144 0.649 0.5515 0 1.1356 -0.0974 1.6548 -0.2272v3.8937c-0.9411 0.3245 -1.9144 0.4867 -2.8881 0.4543 -2.0763 0 -3.6664 -0.5841 -4.7698 -1.7522 -1.1029 -1.1681 -1.6547 -2.8229 -1.6547 -4.9644V39.2715l5.0293 -1.6223v5.5809h4.2833v3.7639h-4.2833Z" stroke-width="1"></path>
  <path fill="#ff694a" d="M35.3617 31.5492c0.8436 0.8112 1.3952 1.882 1.525 3.0501 0 0.4867 -0.1298 0.8112 -0.4218 1.4276 -0.292 0.6165 -3.8937 6.8464 -4.9644 8.5661 -0.6165 1.0059 -0.941 2.2065 -0.941 3.3745 0 1.2006 0.3245 2.3687 0.941 3.3746 1.0707 1.7197 4.6724 7.982 4.9644 8.5985 0.292 0.6165 0.4218 0.9085 0.4218 1.3952 -0.1298 1.1681 -0.649 2.2389 -1.4926 3.0176 -0.8112 0.8436 -1.8819 1.3953 -3.0176 1.4926 -0.4867 0 -0.8112 -0.1298 -1.3952 -0.4218 -0.5841 -0.2921 -6.9437 -3.7964 -8.6634 -4.8671 -0.1298 -0.0649 -0.2596 -0.1623 -0.4218 -0.2272l-8.5012 -5.0293c0.1946 1.6224 0.9085 3.1799 2.0766 4.3155 0.2271 0.2271 0.4543 0.4218 0.7138 0.6165 -0.1947 0.0973 -0.4218 0.1947 -0.6165 0.3245 -1.7197 1.0707 -7.982 4.6724 -8.59849 4.9644 -0.61649 0.292 -0.90853 0.4218 -1.42769 0.4218 -1.1681 -0.1298 -2.23886 -0.6489 -3.0176 -1.4925 -0.84363 -0.8112 -1.39523 -1.882 -1.52502 -3.0501 0.03245 -0.4867 0.16224 -0.9734 0.42182 -1.3952 0.29202 -0.6165 3.89367 -6.8789 4.96441 -8.5986 0.61654 -1.0058 0.94099 -2.1739 0.94099 -3.3745 0 -1.2005 -0.32445 -2.3686 -0.94099 -3.3745 -1.07074 -1.7846 -4.70484 -8.0469 -4.96441 -8.6634 -0.25958 -0.4218 -0.38937 -0.9085 -0.42182 -1.3952 0.12979 -1.1681 0.64895 -2.2389 1.49258 -3.0501 0.81118 -0.8436 1.88194 -1.3628 3.05004 -1.4926 0.4867 0.0325 0.9734 0.1623 1.42769 0.4219 0.51916 0.2271 5.09419 2.8878 7.52779 4.3155l0.5516 0.3244c0.1946 0.1298 0.3569 0.2271 0.4867 0.2921l0.2596 0.1622 8.6634 5.1267c-0.1947 -1.9469 -1.2006 -3.7315 -2.758 -4.932 0.1947 -0.0974 0.4218 -0.1947 0.6165 -0.3245 1.7197 -1.0708 7.982 -4.7049 8.5985 -4.9644 0.4218 -0.2596 0.9085 -0.3894 1.4277 -0.4219 1.1356 0.1298 2.2064 0.649 3.0176 1.4926ZM19.3976 50.3038l1.8495 -1.8496c0.2596 -0.2595 0.2596 -0.6489 0 -0.9085l-1.8495 -1.8495c-0.2596 -0.2596 -0.6489 -0.2596 -0.9085 0l-1.8495 1.8495c-0.2596 0.2596 -0.2596 0.649 0 0.9085l1.8495 1.8496c0.2271 0.2271 0.6489 0.2271 0.9085 0Z" stroke-width="1"></path>
</svg>