<?xml version="1.0" encoding="UTF-8"?>
<svg version="1.1" xmlns="http://www.w3.org/2000/svg" width="1250" height="417">
<path d="M0 0 C2.69069244 1.68904781 4.84678764 3.67369983 7 6 C7.81984375 5.65066406 8.6396875 5.30132812 9.484375 4.94140625 C10.56203125 4.48636719 11.6396875 4.03132812 12.75 3.5625 C13.81734375 3.11003906 14.8846875 2.65757812 15.984375 2.19140625 C26.31232812 -1.88893792 39.10015537 -1.27234708 49.36328125 2.74609375 C53.61761885 4.76926763 57.3303308 7.04424826 61 10 C61.75023437 10.60199219 62.50046875 11.20398438 63.2734375 11.82421875 C68.25063431 16.28331146 71.45239823 21.09849846 74.4375 27 C74.93262085 27.97815674 74.93262085 27.97815674 75.43774414 28.97607422 C79.95347184 38.46583523 80.3469271 47.76711906 80.31567383 58.11889648 C80.31252116 60.29787636 80.3360131 62.47548463 80.36132812 64.65429688 C80.43968599 81.8578203 76.1100182 96.38097928 64 109 C57.99345818 114.14144251 51.49729316 117.55351486 44 120 C43.4121875 120.19335938 42.824375 120.38671875 42.21875 120.5859375 C30.78624598 122.71946818 19.30741379 121.20132084 9 116 C8.98541748 116.57443848 8.97083496 117.14887695 8.95581055 117.74072266 C8.88086275 120.36945696 8.78436006 122.99698552 8.6875 125.625 C8.66494141 126.52863281 8.64238281 127.43226563 8.61914062 128.36328125 C8.40846016 133.61114002 7.9153078 137.4618854 5 142 C1.25165705 145.4075845 -2.68128543 145.56061472 -7.5546875 145.4296875 C-11.55175316 144.72732772 -13.26833621 142.94179178 -16 140 C-17.27199896 137.45600208 -17.13445786 135.66893127 -17.14717102 132.81987 C-17.15432632 131.72209229 -17.16148163 130.62431458 -17.16885376 129.49327087 C-17.17154266 128.2833699 -17.17423157 127.07346893 -17.17700195 125.8269043 C-17.18357315 124.55692596 -17.19014435 123.28694763 -17.19691467 121.97848511 C-17.21432832 118.48871601 -17.22487742 114.99896063 -17.2331202 111.50915885 C-17.23826964 109.32913522 -17.24434539 107.14911585 -17.25063133 104.96909523 C-17.26968452 98.1491311 -17.28391533 91.3291778 -17.2922433 84.50919217 C-17.30201699 76.63513487 -17.32833909 68.76135859 -17.36874419 60.88740033 C-17.39889833 54.80240409 -17.41371149 48.71748844 -17.41702431 42.63241893 C-17.41937564 38.99754774 -17.42834617 35.36297673 -17.45348549 31.72818565 C-17.48108331 27.67237008 -17.4769373 23.61718276 -17.4699707 19.5612793 C-17.48278076 18.35745102 -17.49559082 17.15362274 -17.50878906 15.91331482 C-17.45767218 7.76975488 -17.45767218 7.76975488 -15.09440613 3.79499817 C-10.48133322 -0.15860821 -5.97758831 -1.20354127 0 0 Z M12.5078125 34.609375 C7.63023818 42.34273118 7.47049041 49.80950185 7.49902344 58.72607422 C7.49999515 60.86433009 7.45830176 62.99897955 7.4140625 65.13671875 C7.32963231 74.68982824 8.73589274 81.96060051 15.0625 89.4375 C21.09549873 94.30282156 25.4190954 96.57097672 33.30859375 96.37109375 C39.91533837 95.46014928 45.28593266 92.38464726 49.4375 87.1875 C55.39464655 78.84749484 55.4927981 70.53844065 55.4375 60.625 C55.45748047 59.36171875 55.47746094 58.0984375 55.49804688 56.796875 C55.4931847 47.44205499 53.92685961 40.56245762 48.875 32.6875 C43.95703993 28.09027645 38.28604747 24.78532465 31.4375 24.4375 C23.31723001 24.99603709 17.75273269 28.57898367 12.5078125 34.609375 Z " fill="#282D33" transform="translate(552,161)"/>
<path d="M0 0 C12.6563792 8.63916669 19.94276039 19.64806746 23.2890625 34.5625 C26.33100514 53.61996847 26.32933727 76.3144859 15.72265625 93.03125 C7.65234222 103.96643189 -2.42518008 111.39724118 -15.7109375 114.5625 C-29.67007725 116.0666604 -42.02576018 114.10323476 -53.40234375 105.45703125 C-54.54509766 104.51923828 -54.54509766 104.51923828 -55.7109375 103.5625 C-56.42121094 102.98886719 -57.13148438 102.41523438 -57.86328125 101.82421875 C-68.21646 92.54411419 -72.8526507 78.60522505 -74.01049805 65.05737305 C-74.14690424 61.44894482 -74.17894604 57.86081798 -74.1484375 54.25 C-74.14013916 52.97906494 -74.13184082 51.70812988 -74.12329102 50.39868164 C-73.81976519 33.49520965 -70.29328029 19.22511106 -58.2734375 6.625 C-42.20212492 -8.33887759 -19.04523109 -11.30600291 0 0 Z M-44.8984375 30.375 C-49.14983884 37.85160236 -49.04847012 45.5465647 -49.0234375 53.9375 C-49.03955078 55.01 -49.05566406 56.0825 -49.07226562 57.1875 C-49.07801306 66.63627864 -47.71549809 75.31559044 -41.56640625 82.80078125 C-36.77570623 87.34942485 -31.18120064 89.81045668 -24.5859375 90.125 C-15.84772379 89.57886164 -11.02637185 85.34842798 -5.375 78.9765625 C-0.70720199 72.2049682 -1.30522021 64.4414524 -1.28540039 56.56005859 C-1.27354063 54.33187646 -1.22433213 52.10650231 -1.17382812 49.87890625 C-1.06189913 40.12519153 -2.3436802 32.81330647 -8.73828125 25.125 C-14.69276019 20.25426058 -19.62533834 18.04960608 -27.40625 18.24609375 C-35.20329934 19.31653612 -40.24211631 24.38830133 -44.8984375 30.375 Z " fill="#282D33" transform="translate(776.7109375,167.4375)"/>
<path d="M0 0 C6.16832199 2.99604211 7.91686385 7.04266675 10.4375 13.0625 C11.04452759 14.45118286 11.04452759 14.45118286 11.66381836 15.86791992 C12.8484561 18.59143278 14.0149201 21.32201132 15.17419434 24.05639648 C16.7546779 27.7761983 18.35164576 31.488957 19.9453125 35.203125 C22.00011304 39.99215731 24.05156445 44.78246698 26.08569336 49.58032227 C26.40379974 50.32856262 26.72190613 51.07680298 27.0496521 51.84771729 C27.65345986 53.26846727 28.25536519 54.69002766 28.85513306 56.11248779 C30.0557917 59.28763115 30.0557917 59.28763115 32 62 C32.28148392 61.34711502 32.56296783 60.69423004 32.85298157 60.02156067 C35.51214298 53.85552478 38.17470283 47.69096902 40.84104633 41.52803516 C42.21157108 38.35990519 43.58079611 35.19122692 44.94702148 32.02124023 C46.51937363 28.37314625 48.0974324 24.727535 49.67578125 21.08203125 C50.16339432 19.94852737 50.65100739 18.8150235 51.15339661 17.64717102 C51.84377266 16.05608772 51.84377266 16.05608772 52.5480957 14.43286133 C52.9500264 13.50242508 53.35195709 12.57198883 53.7660675 11.61335754 C56.08602561 6.69989588 58.2226634 2.80408887 63 0 C67.76787779 -0.8724952 71.11023495 -0.4529713 75.4375 1.75 C78.30891911 4.27124605 79.6687311 6.18545995 80.35639954 9.95219421 C80.54091903 16.91287603 78.22627704 22.30351388 75.41796875 28.58203125 C74.93639816 29.69405411 74.45482758 30.80607697 73.95866394 31.95179749 C72.65382903 34.95680357 71.33493086 37.9551099 70.00908661 40.95088959 C68.63027541 44.0750998 67.2691945 47.20701047 65.90673828 50.33837891 C63.9644947 54.79848359 62.01660613 59.25603966 60.06177139 63.71063995 C56.79178437 71.16439191 53.57433286 78.63955021 50.38671875 86.12890625 C49.52788992 88.14157961 48.66892561 90.15419518 47.80981445 92.16674805 C46.6052196 94.98878766 45.40198378 97.81134469 44.20443726 100.63638306 C36.70403531 118.30611201 29.54803733 134.66043825 10.625 142.375 C3.12582759 145.18413624 -3.98320839 145.854629 -12 145 C-15.34575453 143.41858516 -17.32559998 141.34880003 -19 138 C-19.41654299 133.47410015 -19.51073318 129.33358109 -17.875 125.0625 C-14.07285035 120.88013538 -9.90633229 119.91458498 -4.5 119.0625 C2.51965449 117.88464187 7.13504817 114.73900971 11.50804138 109.17906189 C14.82655868 104.33224209 17.50394814 99.0875273 16.52902222 93.11447144 C15.43901376 89.98168765 14.15489528 87.03032878 12.74609375 84.02734375 C12.25601334 82.90598526 11.76593292 81.78462677 11.26100159 80.62928772 C9.68724316 77.04907532 8.06417618 73.49393418 6.4375 69.9375 C5.4008722 67.60764052 4.36763879 65.27626766 3.33789062 62.94335938 C1.27960373 58.29146591 -0.79063027 53.6452157 -2.87158203 49.00341797 C-6.0424101 41.91458055 -9.19081834 34.81739941 -12.27734375 27.69140625 C-12.7538588 26.61801498 -13.23037384 25.54462372 -13.72132874 24.43870544 C-16.62861936 17.66862138 -18.4299986 12.91368038 -15.8125 5.75 C-12.00810093 -0.02219169 -6.61896031 -1.38030864 0 0 Z " fill="#282D33" transform="translate(969,161)"/>
<path d="M0 0 C3.7229703 2.6592645 6.55543557 5.73587115 8.625 9.875 C8.72747316 11.85051185 8.76451301 13.82952526 8.77217102 15.80767822 C8.77932632 17.07229385 8.78648163 18.33690948 8.79385376 19.6398468 C8.79669417 21.04928564 8.79940588 22.45872475 8.80200195 23.86816406 C8.80826561 25.3463914 8.81491232 26.82461716 8.82191467 28.30284119 C8.83933447 32.32571911 8.8498793 36.34858513 8.8581202 40.37149143 C8.86326877 42.88453185 8.86934459 45.39756857 8.87563133 47.91060638 C8.89468699 55.77228214 8.90891678 63.63394848 8.9172433 71.4956429 C8.92701518 80.57239425 8.9533317 89.6489017 8.99374419 98.7255671 C9.02390215 105.739658 9.0387119 112.75367899 9.04202431 119.76783347 C9.04437537 123.95772091 9.05334253 128.14734791 9.07848549 132.33716583 C9.10176551 136.28034513 9.10599993 140.2230925 9.09572411 144.16632271 C9.0952286 145.61189523 9.10155362 147.05748901 9.11528015 148.50299644 C9.1330004 150.48004747 9.12350719 152.45728605 9.11274719 154.43438721 C9.11513555 155.53978474 9.1175239 156.64518227 9.11998463 157.78407669 C8.31777055 162.79348919 5.73887399 165.89373005 2 169.1875 C-3.1318589 172.8338208 -8.23223054 172.43343359 -14.375 171.875 C-19.75675503 170.20808472 -22.69162184 166.72572207 -25.375 161.875 C-26.44383101 158.66850697 -26.50871656 156.35887404 -26.52217102 152.98738098 C-26.52932632 151.75793762 -26.53648163 150.52849426 -26.54385376 149.26179504 C-26.546694 147.89694239 -26.54940573 146.53208947 -26.55200195 145.16723633 C-26.55826772 143.73151485 -26.56491462 142.29579499 -26.57191467 140.8600769 C-26.59294696 136.14240649 -26.6033174 131.42473578 -26.61328125 126.70703125 C-26.61732935 125.08172781 -26.62144628 123.45642454 -26.62563133 121.83112144 C-26.64468247 114.19369819 -26.65891274 106.55628459 -26.6672433 98.91884214 C-26.67701089 90.1098298 -26.7033181 81.30106907 -26.74374419 72.49214536 C-26.77393417 65.67927522 -26.78871497 58.86647708 -26.79202431 52.05354136 C-26.79437185 47.98656245 -26.80329313 43.91985234 -26.82848549 39.85294533 C-26.85182139 36.02383073 -26.85597756 32.19516086 -26.84572411 28.3659935 C-26.84522994 26.96479879 -26.85151516 25.56358179 -26.86528015 24.16245461 C-26.94540638 15.51901932 -26.80443419 8.61025259 -20.62109375 2 C-13.99321367 -2.12274182 -7.3780847 -2.45936157 0 0 Z " fill="#282D33" transform="translate(428.375,174.125)"/>
<path d="M0 0 C4.07166495 2.90833211 7.01178079 6.03534238 8.625 10.875 C8.72263702 12.86549173 8.75999433 14.85912753 8.76544189 16.852005 C8.77115204 18.10116699 8.77686218 19.35032898 8.78274536 20.63734436 C8.78399071 22.02426138 8.7851158 23.4111785 8.78613281 24.7980957 C8.79076147 26.25676601 8.79578619 27.7154351 8.80117798 29.17410278 C8.81429963 33.13907712 8.8207465 37.10403453 8.82518864 41.06902719 C8.82811981 43.54639365 8.83222471 46.02375548 8.83669281 48.50111961 C8.85036727 56.252804 8.86003412 64.00447782 8.8638947 71.75617343 C8.86837514 80.70326006 8.88592255 89.6501939 8.9148953 98.59723407 C8.93651472 105.51368247 8.94659912 112.43008789 8.94793582 119.34656972 C8.94898369 123.4771472 8.95488747 127.60758104 8.97275543 131.73812294 C8.98924062 135.6246313 8.99138954 139.5108881 8.98261642 143.39741898 C8.98184628 144.82202135 8.98618586 146.24663726 8.99607468 147.67120552 C9.00880513 149.61977715 9.00112168 151.56844996 8.99249268 153.51704407 C8.99395924 154.60639409 8.9954258 155.69574411 8.9969368 156.81810474 C8.48565713 161.02023906 6.98679343 164.3819921 4.125 167.51953125 C-1.89144091 172.20420789 -6.93274764 172.59420926 -14.375 171.875 C-19.54955141 170.36495433 -22.61619313 166.98077504 -25.32868576 162.45573425 C-27.52674915 157.03421052 -27.06717358 151.17901687 -27.02197266 145.41601562 C-27.02875711 143.95984304 -27.03766488 142.50367904 -27.04852295 141.04753113 C-27.07122508 137.11142686 -27.06251812 133.17598134 -27.04662752 129.23986626 C-27.03392106 125.11029226 -27.04572176 120.98077263 -27.05355835 116.85119629 C-27.06264116 109.91778493 -27.05070312 102.98464034 -27.02685547 96.05126953 C-26.99964663 88.04853578 -27.00846178 80.04643905 -27.0359875 72.04372072 C-27.05871676 65.15851043 -27.06186008 58.27349131 -27.04879415 51.3882556 C-27.04102052 47.28223455 -27.03990014 43.17651241 -27.05647659 39.07051086 C-27.07097802 35.20914883 -27.06079769 31.34860375 -27.03200531 27.48732948 C-27.02542452 26.07487147 -27.02724053 24.66234406 -27.03831863 23.24991417 C-27.0947845 15.31591934 -26.97373007 8.9197646 -21.375 2.875 C-15.24065177 -2.43034549 -7.49375538 -2.49791846 0 0 Z " fill="#282D33" transform="translate(290.375,174.125)"/>
<path d="M0 0 C3.92710616 2.29808435 6.55264149 4.65792447 8 9 C8.07029121 11.57265818 8.09370832 14.11641431 8.0625 16.6875 C8.05798828 17.38939453 8.05347656 18.09128906 8.04882812 18.81445312 C8.03706927 20.54300538 8.01913454 22.27151365 8 24 C8.81154541 23.9685791 9.62309082 23.9371582 10.45922852 23.90478516 C14.16003193 23.77954914 17.86038888 23.70186044 21.5625 23.625 C23.47772461 23.54958984 23.47772461 23.54958984 25.43164062 23.47265625 C36.06982053 23.30686643 36.06982053 23.30686643 40.33984375 26.8359375 C43.20214193 29.75954144 43.9251642 32.20674052 44.3125 36.3125 C43.93790854 40.73267921 42.83614013 42.62729281 40 46 C36.1104267 48.86504404 33.39674144 49.36109111 28.60546875 49.29296875 C27.40341797 49.28330078 26.20136719 49.27363281 24.96289062 49.26367188 C23.71701172 49.23853516 22.47113281 49.21339844 21.1875 49.1875 C19.28967773 49.16719727 19.28967773 49.16719727 17.35351562 49.14648438 C14.23524357 49.11118318 11.11783958 49.06186819 8 49 C8.01635417 56.36538475 8.07140624 63.72977334 8.15258789 71.09472656 C8.17569668 73.59693949 8.19014676 76.09924871 8.19555664 78.6015625 C8.20489775 82.21154291 8.2460053 85.82002358 8.29296875 89.4296875 C8.2890361 90.53738495 8.28510345 91.6450824 8.28105164 92.78634644 C8.41702152 100.12607101 9.72937167 105.91767484 14 112 C19.55175918 117.24116808 24.81288295 118.56286727 32.2578125 119.51953125 C37.08124448 120.36466249 39.85793641 122.59145491 42.875 126.3125 C44.81798403 130.95407296 44.52196795 134.57145614 42.8125 139.25 C40.7483343 142.38183762 39.35278873 143.37511496 36 145 C23.21965359 146.77105924 12.04033055 143.10319931 1.53515625 135.96875 C-8.00494135 128.56010718 -14.55991672 117.8751366 -17 106 C-17.28795142 102.73627403 -17.30395371 99.48768865 -17.30639648 96.21264648 C-17.31472 95.25565857 -17.32304352 94.29867065 -17.33161926 93.31268311 C-17.35561522 90.16544472 -17.36447663 87.01841376 -17.37109375 83.87109375 C-17.38006469 81.6758671 -17.38918662 79.48064107 -17.39845276 77.28541565 C-17.41491465 72.69164546 -17.42263836 68.09794795 -17.42553711 63.50415039 C-17.43093233 57.62050643 -17.46867196 51.73754527 -17.51428127 45.85409451 C-17.54402479 41.3236084 -17.55126001 36.79328774 -17.55226326 32.26271248 C-17.55646728 30.09338297 -17.56890877 27.92405304 -17.58978081 25.75481987 C-17.61665139 22.72202 -17.6118833 19.6908173 -17.59936523 16.65795898 C-17.61419952 15.76480484 -17.62903381 14.8716507 -17.64431763 13.95143127 C-17.59438101 9.70056057 -17.33775977 6.85868183 -14.65003967 3.45887756 C-10.38533477 -0.49819044 -5.61342114 -1.00372431 0 0 Z " fill="#282D33" transform="translate(841,137)"/>
<path d="M0 0 C3.11508913 2.73520021 4.39146751 4.59459881 4.81976891 8.74007225 C4.82312059 9.67988253 4.82647228 10.6196928 4.82992554 11.58798218 C4.83845551 12.67023575 4.84698547 13.75248932 4.85577393 14.86753845 C4.85486755 16.04997635 4.85396118 17.23241425 4.85302734 18.45068359 C4.86310318 20.32441902 4.86310318 20.32441902 4.87338257 22.23600769 C4.88912829 25.65969258 4.89573775 29.08313489 4.89701414 32.50683928 C4.89843656 34.64702231 4.90270787 36.78717999 4.90800858 38.92735672 C4.92650755 46.39722557 4.93467937 53.86702307 4.93310547 61.33691406 C4.93190414 68.29432774 4.95300486 75.25143116 4.9845928 82.20876634 C5.01076507 88.18682542 5.02147237 94.16478323 5.02019465 100.14289916 C5.01968528 103.71124597 5.02535398 107.27931703 5.04655075 110.84760666 C5.06955443 114.82870295 5.06040632 118.80937543 5.04833984 122.79052734 C5.05957886 123.96891678 5.07081787 125.14730621 5.08239746 126.36140442 C5.0342214 132.60893679 4.83992351 136.53815505 0.5625 141.25 C-3.43669008 143.98462405 -7.75904352 143.91487596 -12.4375 143.25 C-16.5170582 141.17313401 -18.77805023 139.4985998 -20.4375 135.25 C-20.69476891 132.75992775 -20.69476891 132.75992775 -20.70492554 129.91201782 C-20.71345551 128.82976425 -20.72198547 127.74751068 -20.73077393 126.63246155 C-20.72986755 125.45002365 -20.72896118 124.26758575 -20.72802734 123.04931641 C-20.73474457 121.80015945 -20.74146179 120.5510025 -20.74838257 119.26399231 C-20.76412829 115.84030742 -20.77073775 112.41686511 -20.77201414 108.99316072 C-20.77343656 106.85297769 -20.77770787 104.71282001 -20.78300858 102.57264328 C-20.80150755 95.10277443 -20.80967937 87.63297693 -20.80810547 80.16308594 C-20.80690414 73.20567226 -20.82800486 66.24856884 -20.8595928 59.29123366 C-20.88576507 53.31317458 -20.89647237 47.33521677 -20.89519465 41.35710084 C-20.89468528 37.78875403 -20.90035398 34.22068297 -20.92155075 30.65239334 C-20.94455443 26.67129705 -20.93540632 22.69062457 -20.92333984 18.70947266 C-20.93457886 17.53108322 -20.94581787 16.35269379 -20.95739746 15.13859558 C-20.9092214 8.89106321 -20.71492351 4.96184495 -16.4375 0.25 C-11.34444021 -3.2326061 -5.28643309 -2.69127503 0 0 Z " fill="#282D33" transform="translate(928.4375,138.75)"/>
<path d="M0 0 C3.11508913 2.73520021 4.39146751 4.59459881 4.81976891 8.74007225 C4.82312059 9.67988253 4.82647228 10.6196928 4.82992554 11.58798218 C4.83845551 12.67023575 4.84698547 13.75248932 4.85577393 14.86753845 C4.85486755 16.04997635 4.85396118 17.23241425 4.85302734 18.45068359 C4.86310318 20.32441902 4.86310318 20.32441902 4.87338257 22.23600769 C4.88912829 25.65969258 4.89573775 29.08313489 4.89701414 32.50683928 C4.89843656 34.64702231 4.90270787 36.78717999 4.90800858 38.92735672 C4.92650755 46.39722557 4.93467937 53.86702307 4.93310547 61.33691406 C4.93190414 68.29432774 4.95300486 75.25143116 4.9845928 82.20876634 C5.01076507 88.18682542 5.02147237 94.16478323 5.02019465 100.14289916 C5.01968528 103.71124597 5.02535398 107.27931703 5.04655075 110.84760666 C5.06955443 114.82870295 5.06040632 118.80937543 5.04833984 122.79052734 C5.05957886 123.96891678 5.07081787 125.14730621 5.08239746 126.36140442 C5.034219 132.60924868 4.83948346 136.5375913 0.5625 141.25 C-3.44881133 144.00628719 -7.74284937 143.779093 -12.4375 143.25 C-15.76371086 141.94843923 -17.04061851 140.83089967 -19.0450592 137.89707947 C-21.06660305 132.60225394 -20.86346689 127.64418077 -20.84155273 122.02172852 C-20.84841599 120.79339294 -20.85527924 119.56505737 -20.86235046 118.29949951 C-20.87748656 114.94186594 -20.87912061 111.58478892 -20.87340808 108.2271626 C-20.87031083 105.41908141 -20.87641463 102.61105014 -20.88244683 99.80297607 C-20.89647846 93.17581851 -20.89494222 86.54878989 -20.88354492 79.92163086 C-20.87206527 73.09596131 -20.88613956 66.27068476 -20.9129414 59.44506699 C-20.93512789 53.57394419 -20.94172916 47.70294448 -20.93586498 41.83178276 C-20.93250117 38.32995974 -20.93487174 34.8283886 -20.95211601 31.32660103 C-20.97051472 27.42013376 -20.95636764 23.51414652 -20.93920898 19.60766602 C-20.94887695 18.45471542 -20.95854492 17.30176483 -20.96850586 16.11387634 C-20.90872073 9.61171516 -20.35435535 5.5219988 -16.4375 0.25 C-11.45596054 -3.31386815 -5.2078636 -2.65127602 0 0 Z " fill="#282D33" transform="translate(675.4375,138.75)"/>
<path d="M0 0 C3.5541525 2.6837478 6.0682293 5.3239586 8.0625 9.3125 C8.17628665 11.87410934 8.23031659 14.40917058 8.23950195 16.97167969 C8.24935875 18.15735031 8.24935875 18.15735031 8.25941467 19.36697388 C8.27916519 21.98944184 8.29081496 24.61185245 8.30078125 27.234375 C8.30485678 28.12972206 8.3089323 29.02506912 8.31313133 29.94754791 C8.33400088 34.68768586 8.348298 39.42779478 8.35766602 44.16796875 C8.36872432 49.06182426 8.40311489 53.9552243 8.44283772 58.84891891 C8.4689992 62.61335082 8.4773575 66.37767421 8.48094749 70.14218903 C8.48581572 71.94588543 8.49743645 73.74957692 8.51598549 75.55318451 C8.54036438 78.08106909 8.53941435 80.60777575 8.5324707 83.13574219 C8.55168579 84.24881241 8.55168579 84.24881241 8.57128906 85.3843689 C8.52015416 90.50475652 7.26202706 93.35813081 4.0625 97.3125 C-1.18670135 102.04958415 -5.25884023 102.68201221 -12.1484375 102.58203125 C-17.04032648 102.10928568 -19.86823138 100.36032994 -23.31307983 96.95117188 C-28.75648258 89.83972391 -27.65890081 80.81740986 -27.6015625 72.3125 C-27.60493537 70.54947577 -27.60979191 68.78645382 -27.61605835 67.0234375 C-27.6234075 63.33831524 -27.61278788 59.65380123 -27.58935547 55.96875 C-27.56086843 51.26106343 -27.577283 46.55480233 -27.60721779 41.84716797 C-27.6253441 38.20952749 -27.61950845 34.57222123 -27.60657883 30.93457031 C-27.60325952 29.19954252 -27.60727965 27.46448372 -27.61897659 25.72949219 C-27.70486464 9.41140636 -27.70486464 9.41140636 -23.31307983 3.67382812 C-17.05644714 -2.51798266 -8.01634578 -4.22366605 0 0 Z " fill="#282D33" transform="translate(359.9375,243.6875)"/>
<path d="M0 0 C3.96857737 2.99668087 6.4815756 5.5697268 8.0625 10.3125 C8.16868726 12.851084 8.21973332 15.36262124 8.22363281 17.90161133 C8.23108017 19.05824028 8.23108017 19.05824028 8.23867798 20.23823547 C8.25328807 22.79034314 8.26009993 25.34238863 8.265625 27.89453125 C8.27137773 29.66948956 8.27713545 31.44444785 8.28289795 33.21940613 C8.29340488 36.94257903 8.29924945 40.66573037 8.30273438 44.38891602 C8.30821621 49.15374728 8.33223884 53.91829237 8.36070633 58.68303394 C8.37935449 62.35052822 8.38453948 66.01795389 8.38607025 69.68549156 C8.38909276 71.44172415 8.39710774 73.19795564 8.41025543 74.95414162 C8.42736045 77.4147158 8.42542493 79.87459513 8.41894531 82.33520508 C8.43276749 83.41786652 8.43276749 83.41786652 8.4468689 84.5223999 C8.40291619 89.86575375 7.20232479 93.96649418 3.5625 97.95703125 C-2.43729886 102.62874963 -7.50878057 103.06056685 -14.9375 102.3125 C-19.81795893 100.67080998 -23.10365798 97.56326303 -25.9375 93.3125 C-27.1281079 89.74067629 -27.10850993 86.47416021 -27.13037109 82.75512695 C-27.13854858 81.98725357 -27.14672607 81.21938019 -27.15515137 80.42823792 C-27.17997195 77.88576022 -27.19651482 75.34333833 -27.2109375 72.80078125 C-27.21892302 71.4959784 -27.21892302 71.4959784 -27.22706985 70.1648159 C-27.25378984 65.55853533 -27.27316645 60.95228171 -27.28759766 56.34594727 C-27.30092463 52.54068905 -27.32875559 48.73596864 -27.36962891 44.9309082 C-27.41904474 40.33028214 -27.44372985 35.73014304 -27.45082474 31.12926292 C-27.45752209 29.38022738 -27.4727046 27.63120205 -27.49671555 25.8823185 C-27.71041253 9.37233796 -27.71041253 9.37233796 -23.31802368 3.66764832 C-17.03520317 -2.49968785 -8.03205522 -4.23194307 0 0 Z " fill="#282D33" transform="translate(221.9375,243.6875)"/>
<path d="M0 0 C3.7229703 2.6592645 6.55543557 5.73587115 8.625 9.875 C9.11828755 15.72975711 9.48244288 21.06484281 6.9375 26.4375 C2.10698433 31.52912462 -1.48765767 33.99055585 -8.5625 34.25 C-14.37303616 34.18082695 -18.1050954 32.8234059 -22.375 28.875 C-26.48078062 24.39702397 -27.06498622 19.53116563 -26.8203125 13.59375 C-25.9802742 8.4650951 -23.66227453 4.9721634 -19.87109375 1.49609375 C-13.98403931 -2.5751945 -6.55415459 -2.1847182 0 0 Z " fill="#ABA1CA" transform="translate(359.375,174.125)"/>
<path d="M0 0 C4.07166495 2.90833211 7.01178079 6.03534238 8.625 10.875 C9.32266205 18.057488 9.02036204 23.05411514 4.625 28.875 C-0.49614703 33.62142896 -4.72121748 34.29572955 -11.515625 34.21484375 C-16.75476886 33.59215862 -20.23852687 31.20514775 -23.75390625 27.37109375 C-27.20575202 22.37974882 -27.22799722 16.72535464 -26.375 10.875 C-24.6951808 5.99723622 -21.6410711 2.7190474 -17.375 -0.125 C-11.73816637 -2.00394454 -5.61662826 -1.87220942 0 0 Z " fill="#F23B79" transform="translate(221.375,105.125)"/>
<path d="M0 0 C3.82563789 3.53871504 7.28755224 6.79098884 7.73828125 12.140625 C7.98647181 23.5835162 7.98647181 23.5835162 3.5 28.3125 C-1.69725003 33.00270125 -5.80301542 33.73888207 -12.640625 33.6484375 C-17.18083263 33.11502513 -20.2335253 31.47905901 -23.5 28.3125 C-26.94987833 23.81690785 -28.16861771 19.17903973 -27.88671875 13.55078125 C-26.98302825 8.32033019 -24.75435949 4.50567122 -20.9375 0.875 C-14.81937539 -3.04687475 -6.44797104 -3.10884318 0 0 Z " fill="#88D4F3" transform="translate(429.5,105.6875)"/>
<path d="M0 0 C4.07166495 2.90833211 7.01178079 6.03534238 8.625 10.875 C9.32266205 18.057488 9.02036204 23.05411514 4.625 28.875 C-0.49614703 33.62142896 -4.72121748 34.29572955 -11.515625 34.21484375 C-16.75476886 33.59215862 -20.23852687 31.20514775 -23.75390625 27.37109375 C-27.20025315 22.38770014 -27.33114935 16.71254339 -26.375 10.875 C-24.47259637 5.8243709 -21.3449307 1.89876238 -16.46484375 -0.50390625 C-10.9478203 -2.14354499 -5.40752943 -1.80250981 0 0 Z " fill="#CF6EA2" transform="translate(290.375,105.125)"/>
<path d="M0 0 C3.7229703 2.6592645 6.55543557 5.73587115 8.625 9.875 C9.12678565 16.32101568 9.58729274 22.45986659 5.625 27.875 C1.27726929 32.22273071 -2.42023935 34.0247549 -8.5625 34.25 C-14.34402835 34.17352476 -18.19123778 32.92094417 -22.375 28.875 C-26.04515342 24.18593713 -27.09201862 19.22290344 -26.8203125 13.3359375 C-25.92585095 8.3928605 -23.53280667 4.8590612 -19.87109375 1.4921875 C-13.97686393 -2.56986004 -6.55763839 -2.18587946 0 0 Z " fill="#ACA1CA" transform="translate(359.375,105.125)"/>
<path d="M0 0 C4.88006234 2.62528299 8.1174457 6.04374335 9.86328125 11.28125 C10.5609433 18.463738 10.25864329 23.46036514 5.86328125 29.28125 C0.74213422 34.02767896 -3.48293623 34.70197955 -10.27734375 34.62109375 C-15.51648761 33.99840862 -19.00024562 31.61139775 -22.515625 27.77734375 C-25.96747077 22.78599882 -25.98971597 17.13160464 -25.13671875 11.28125 C-23.45689955 6.40348622 -20.40278985 3.1252974 -16.13671875 0.28125 C-11.04065361 -1.41743838 -5.14382507 -1.73028119 0 0 Z " fill="#F23B79" transform="translate(220.13671875,173.71875)"/>
</svg>
